<svg xmlns="http://www.w3.org/2000/svg" viewBox="0 0 64 64">
  <rect width="64" height="64" rx="12" fill="#ffffff"/>
  <circle cx="32" cy="30" r="18" fill="#fcc419"/>
  <path d="M8 42 q6 -3 12 0 t12 0 t12 0 t12 0 v8 H8 z" fill="#1f2937"/>
  <g fill="#1f2937">
    <circle cx="32" cy="22" r="3.2"/>
    <path d="M28.8 25 q3.2 -2 6.4 0 v10 q-3.2 2 -6.4 0 z"/>
    <rect x="22" y="14" width="2.6" height="30" rx="1.3" transform="rotate(20 23.3 29)"/>
    <path d="M19 13 q-2 1 -1 4 q3 -1 3 -4 z" transform="rotate(20 23.3 29)"/>
    <path d="M27 43 q-2 -1 -1 -4 q3 1 3 4 z" transform="rotate(20 23.3 29)"/>
  </g>
</svg>
